<?xml version="1.0" encoding="utf-8"?>
<!-- Generator: Adobe Illustrator 16.0.0, SVG Export Plug-In . SVG Version: 6.00 Build 0)  -->
<!DOCTYPE svg PUBLIC "-//W3C//DTD SVG 1.1//EN" "http://www.w3.org/Graphics/SVG/1.1/DTD/svg11.dtd">
<svg version="1.1" id="Ebene_1" xmlns="http://www.w3.org/2000/svg" xmlns:xlink="http://www.w3.org/1999/xlink" x="0px" y="0px"
	 width="284px" height="66px" viewBox="0 0 284 66" enable-background="new 0 0 284 66" xml:space="preserve">
<rect x="166.335" y="16.546" fill="#1D1D1B" width="8.566" height="22.749"/>
<path fill="#1D1D1B" d="M235.118,31.712c0,6.289,4.549,7.939,9.814,7.939h3.388c6.826,0,9.68-3.3,9.68-7.625V29.26h-7.492v1.516
	c0,2.096-0.759,2.721-3.525,2.721c-2.05,0-3.301-0.356-3.301-2.052V22.7h13.292v-6.154h-13.292v-5.352h-8.563v5.352h-4.285V22.7
	h4.285V31.712z"/>
<path fill="#1D1D1B" d="M205.543,39.651h12.801c4.375,0,9.416-1.515,9.416-9.009v-5.443c0-7.494-5.041-9.009-9.416-9.009h-12.801
	c-4.371,0-9.409,1.515-9.409,9.009v5.443C196.134,38.136,201.172,39.651,205.543,39.651z M204.697,26.851
	c0-3.256,1.916-4.237,5.844-4.237h2.05c5.532,0,6.603,0.714,6.603,3.746v3.124c0,3.032-1.07,3.745-6.603,3.745h-2.05
	c-3.928,0-5.844-0.979-5.844-4.236V26.851z"/>
<rect x="166.335" y="7" fill="#1D1D1B" width="8.566" height="6.691"/>
<rect x="181.769" y="7" fill="#1D1D1B" width="8.563" height="32.295"/>
<path fill="#1D1D1B" d="M138.056,35.37h0.089c1.918,3.614,3.614,4.281,8.476,4.281h1.74c10.838,0,12.175-3.88,12.175-9.679v-4.104
	c0-5.798-1.337-9.679-12.175-9.679h-2.452c-4.997,0-6.96,1.738-8.031,3.747h-0.089v-3.391h-8.297v30.69h8.564V35.37z
	 M138.056,26.806c0-3.434,1.785-4.192,5.175-4.192h4.503c4.106,0,4.507,1.427,4.507,3.97v2.677c0,2.541-0.401,3.968-4.507,3.968
	h-4.503c-3.39,0-5.175-0.757-5.175-4.192V26.806z"/>
<path fill="#C51A1B" d="M4.951,39.295h3.836V19.669h10.84v-3.123H8.787v-2.811c0-2.006,1.115-3.613,3.97-3.613h6.871V7h-7.182
	c-4.192,0-7.495,2.143-7.495,7.54v2.006H0v3.123h4.951V39.295z"/>
<path fill="#C51A1B" d="M77.078,39.651h6.96c7.136,0,11.461-1.56,11.461-6.778v-0.446h-3.833c-0.224,3.48-2.188,4.105-7.004,4.105
	h-5.265c-6.689,0-9.188-1.339-9.188-6.514V28.59H95.5v-2.543c0-8.117-4.951-9.857-11.819-9.857h-6.155
	c-5.443,0-11.153,0.936-11.153,9.189v4.951C66.373,38.715,72.083,39.651,77.078,39.651z M78.06,19.311h5.621
	c6.245,0,7.985,2.322,7.985,4.64v1.518H70.209C70.566,20.293,71.994,19.311,78.06,19.311z"/>
<path fill="#C51A1B" d="M47.633,40.559l-0.002-0.005c-0.014,0.028-0.029,0.059-0.059,0.122c-1.769,3.633-3.26,3.971-8.677,3.971
	v3.124c7.897-0.089,9.501-0.98,11.866-5.667l12.848-25.559h-4.149l-9.902,20.12l-11.018-20.12h-4.326l13.418,24.008
	C47.686,40.444,47.633,40.559,47.633,40.559z"/>
<rect x="25.247" y="7" fill="#C51A1B" width="3.836" height="32.295"/>
<path fill="#C51A1B" d="M105.671,24.844c0-2.944,1.962-5.533,6.022-5.533h2.365c6.823,0,7.982,0.894,7.982,6.513v0.981h3.569v-2.721
	c0-5.576-2.365-7.895-9.544-7.895h-3.613c-2.632,0-5.531,0.714-6.96,3.658h-0.088v-3.302h-3.569v22.749h3.836V24.844z"/>
<polygon fill="#1D1D1B" points="141.949,57.927 140.994,57.927 140.994,65.888 145.524,65.888 145.524,65.053 141.949,65.053 "/>
<rect x="215.422" y="57.927" fill="#1D1D1B" width="0.953" height="7.961"/>
<polygon fill="#1D1D1B" points="159.268,64.588 154.933,57.927 153.728,57.927 153.728,65.888 154.681,65.888 154.681,59.218 
	159.017,65.888 160.221,65.888 160.221,57.927 159.268,57.927 "/>
<rect x="148.659" y="57.927" fill="#1D1D1B" width="0.952" height="7.961"/>
<polygon fill="#1D1D1B" points="221.077,57.927 219.883,57.927 216.512,61.804 220.063,65.888 221.287,65.888 217.709,61.728 "/>
<path fill="#1D1D1B" d="M78.343,64.791c-0.624,0.224-1.222,0.336-1.797,0.336c-0.483,0-0.927-0.083-1.331-0.257
	c-0.405-0.174-0.744-0.405-1.017-0.697c-0.273-0.293-0.485-0.634-0.636-1.025c-0.152-0.391-0.227-0.802-0.227-1.237
	c0-0.418,0.072-0.817,0.214-1.201c0.141-0.381,0.339-0.722,0.59-1.02c0.252-0.296,0.57-0.533,0.953-0.709
	c0.383-0.179,0.797-0.267,1.246-0.267c0.542,0,1.175,0.124,1.899,0.375l0.291-0.79c-0.717-0.283-1.437-0.426-2.164-0.426
	c-0.798,0-1.501,0.179-2.11,0.537c-0.61,0.354-1.074,0.838-1.393,1.445c-0.319,0.61-0.478,1.297-0.478,2.063
	c0,0.453,0.055,0.883,0.17,1.291c0.116,0.411,0.283,0.782,0.507,1.124s0.492,0.635,0.803,0.884c0.313,0.246,0.679,0.44,1.097,0.579
	c0.413,0.136,0.853,0.204,1.324,0.206h0.038c0.766-0.002,1.537-0.169,2.313-0.503L78.343,64.791z"/>
<path fill="#1D1D1B" d="M102.33,65.475c0.23-0.157,0.425-0.341,0.583-0.547c0.155-0.207,0.266-0.416,0.334-0.627
	c0.067-0.21,0.1-0.423,0.1-0.637c0-0.306-0.06-0.581-0.184-0.825c-0.124-0.241-0.286-0.438-0.488-0.59
	c-0.203-0.15-0.43-0.289-0.688-0.416c-0.257-0.127-0.521-0.232-0.788-0.314c-0.268-0.082-0.53-0.174-0.788-0.271
	c-0.257-0.099-0.486-0.201-0.689-0.299c-0.202-0.102-0.363-0.232-0.486-0.393c-0.125-0.16-0.188-0.344-0.188-0.548
	c0-0.371,0.192-0.672,0.577-0.906c0.383-0.232,0.849-0.35,1.401-0.35c0.494,0,1.077,0.099,1.75,0.293l0.309-0.87
	c-0.707-0.212-1.366-0.318-1.978-0.318c-0.46,0-0.886,0.06-1.279,0.188c-0.391,0.124-0.719,0.291-0.978,0.501
	c-0.263,0.214-0.467,0.46-0.615,0.739c-0.147,0.277-0.221,0.572-0.221,0.878c0,0.344,0.08,0.644,0.237,0.898
	c0.159,0.254,0.363,0.455,0.617,0.604c0.253,0.149,0.529,0.281,0.836,0.396c0.304,0.114,0.608,0.221,0.913,0.318
	c0.308,0.101,0.587,0.208,0.837,0.321c0.254,0.113,0.46,0.262,0.619,0.448c0.157,0.184,0.238,0.405,0.238,0.657
	c0,0.383-0.179,0.684-0.535,0.913c-0.356,0.229-0.819,0.343-1.386,0.343c-0.542,0-1.281-0.174-2.214-0.521l-0.325,0.926
	c0.452,0.177,0.861,0.311,1.224,0.401c0.359,0.088,0.756,0.132,1.182,0.134h0.028c0.426-0.002,0.815-0.049,1.166-0.144
	C101.805,65.759,102.097,65.632,102.33,65.475z"/>
<path fill="#1D1D1B" d="M52.04,65.475c0.231-0.157,0.423-0.341,0.582-0.547c0.155-0.207,0.268-0.416,0.334-0.627
	c0.068-0.21,0.102-0.423,0.102-0.637c0-0.306-0.062-0.581-0.186-0.825c-0.124-0.241-0.286-0.438-0.488-0.59
	c-0.199-0.15-0.43-0.289-0.688-0.416c-0.257-0.127-0.521-0.232-0.788-0.314c-0.266-0.082-0.53-0.174-0.786-0.271
	c-0.259-0.099-0.488-0.201-0.691-0.299c-0.202-0.102-0.363-0.232-0.486-0.393c-0.125-0.16-0.186-0.344-0.186-0.548
	c0-0.371,0.19-0.672,0.575-0.906c0.383-0.232,0.851-0.35,1.401-0.35c0.494,0,1.077,0.099,1.749,0.293l0.31-0.87
	c-0.708-0.212-1.366-0.318-1.978-0.318c-0.46,0-0.885,0.06-1.279,0.188c-0.391,0.124-0.719,0.291-0.978,0.501
	c-0.263,0.214-0.467,0.46-0.615,0.739c-0.147,0.277-0.221,0.572-0.221,0.878c0,0.344,0.081,0.644,0.238,0.898
	c0.16,0.254,0.364,0.455,0.617,0.604c0.254,0.149,0.53,0.281,0.836,0.396c0.304,0.114,0.608,0.221,0.916,0.318
	c0.306,0.101,0.585,0.208,0.836,0.321c0.252,0.113,0.458,0.262,0.617,0.448c0.157,0.184,0.237,0.405,0.237,0.657
	c0,0.383-0.177,0.684-0.535,0.913c-0.356,0.229-0.819,0.343-1.386,0.343c-0.542,0-1.281-0.174-2.214-0.521l-0.325,0.926
	c0.452,0.177,0.861,0.311,1.224,0.401c0.36,0.088,0.756,0.132,1.182,0.134h0.028c0.427-0.002,0.815-0.049,1.166-0.144
	C51.515,65.759,51.806,65.632,52.04,65.475z"/>
<polygon fill="#1D1D1B" points="136.095,64.588 131.759,57.927 130.553,57.927 130.553,65.888 131.506,65.888 131.506,59.218 
	135.844,65.888 137.048,65.888 137.048,57.927 136.095,57.927 "/>
<path fill="#1D1D1B" d="M111.1,65.475c0.234-0.157,0.427-0.341,0.582-0.547c0.159-0.207,0.271-0.416,0.338-0.627
	c0.068-0.21,0.102-0.423,0.102-0.637c0-0.306-0.062-0.581-0.186-0.825c-0.124-0.241-0.286-0.438-0.488-0.59
	c-0.201-0.15-0.432-0.289-0.689-0.416c-0.258-0.127-0.519-0.232-0.786-0.314s-0.53-0.174-0.786-0.271
	c-0.259-0.099-0.49-0.201-0.691-0.299c-0.202-0.102-0.364-0.232-0.488-0.393c-0.122-0.16-0.186-0.344-0.186-0.548
	c0-0.371,0.192-0.672,0.575-0.906c0.383-0.232,0.85-0.35,1.403-0.35c0.493,0,1.075,0.099,1.749,0.293l0.308-0.87
	c-0.706-0.212-1.365-0.318-1.978-0.318c-0.458,0-0.885,0.06-1.276,0.188c-0.393,0.124-0.721,0.291-0.982,0.501
	c-0.261,0.214-0.466,0.46-0.612,0.739c-0.149,0.277-0.222,0.572-0.222,0.878c0,0.344,0.079,0.644,0.237,0.898
	c0.159,0.254,0.364,0.455,0.617,0.604c0.251,0.149,0.53,0.281,0.836,0.396c0.303,0.114,0.608,0.221,0.915,0.318
	c0.306,0.101,0.587,0.208,0.836,0.321c0.254,0.113,0.46,0.262,0.617,0.448c0.161,0.184,0.237,0.405,0.237,0.657
	c0,0.383-0.175,0.684-0.533,0.913c-0.356,0.229-0.819,0.343-1.388,0.343c-0.54,0-1.279-0.174-2.212-0.521l-0.325,0.926
	c0.453,0.177,0.86,0.311,1.224,0.401c0.36,0.088,0.752,0.132,1.181,0.134h0.028c0.429-0.002,0.818-0.049,1.166-0.144
	C110.578,65.759,110.869,65.632,111.1,65.475z"/>
<path fill="#1D1D1B" d="M212.023,64.791c-0.622,0.224-1.224,0.336-1.799,0.336c-0.481,0-0.923-0.083-1.331-0.257
	c-0.404-0.174-0.742-0.405-1.017-0.697c-0.271-0.293-0.485-0.634-0.636-1.025c-0.15-0.391-0.224-0.802-0.224-1.237
	c0-0.418,0.07-0.817,0.211-1.201c0.144-0.381,0.338-0.722,0.592-1.02c0.251-0.296,0.568-0.533,0.949-0.709
	c0.385-0.179,0.803-0.267,1.251-0.267c0.538,0,1.171,0.124,1.896,0.375l0.294-0.79c-0.719-0.283-1.441-0.426-2.163-0.426
	c-0.8,0-1.506,0.179-2.114,0.537c-0.608,0.354-1.073,0.838-1.391,1.445c-0.318,0.61-0.482,1.297-0.482,2.063
	c0,0.453,0.061,0.883,0.175,1.291c0.113,0.411,0.28,0.782,0.505,1.124c0.224,0.341,0.495,0.635,0.803,0.884
	c0.313,0.246,0.679,0.44,1.1,0.579c0.408,0.136,0.85,0.204,1.321,0.206h0.037c0.766-0.002,1.538-0.169,2.313-0.503L212.023,64.791z"
	/>
<path fill="#1D1D1B" d="M201.058,65.605c0.208-0.113,0.389-0.257,0.539-0.435c0.15-0.174,0.264-0.338,0.341-0.495
	c0.073-0.155,0.131-0.337,0.174-0.545c0.044-0.211,0.067-0.378,0.077-0.508c0.007-0.127,0.01-0.278,0.01-0.452
	c0-0.083,0-0.19-0.003-0.321c0-0.129-0.004-0.301-0.004-0.515s0-0.702,0-1.465c-0.003-0.762-0.003-1.742-0.003-2.943h-0.943v5.162
	c0,0.316-0.023,0.574-0.073,0.773c-0.104,0.416-0.331,0.742-0.686,0.971c-0.352,0.231-0.793,0.343-1.317,0.343
	c-0.729,0-1.281-0.209-1.652-0.63c-0.178-0.201-0.291-0.411-0.345-0.639c-0.057-0.229-0.084-0.501-0.084-0.818v-5.162h-0.949v5.234
	c0,0.451,0.03,0.801,0.094,1.047c0.033,0.144,0.077,0.277,0.13,0.408c0.054,0.127,0.154,0.281,0.298,0.461s0.314,0.331,0.512,0.458
	c0.201,0.128,0.472,0.237,0.819,0.329c0.345,0.089,0.732,0.134,1.16,0.136h0.034c0.397-0.002,0.762-0.039,1.076-0.112
	C200.587,65.814,200.851,65.719,201.058,65.605z"/>
<polygon fill="#1D1D1B" points="55.466,58.77 58.126,58.77 58.126,65.888 59.08,65.888 59.08,58.77 61.742,58.77 61.742,57.927 
	55.466,57.927 "/>
<polygon fill="#1D1D1B" points="238.384,64.588 234.049,57.927 232.846,57.927 232.846,65.888 233.795,65.888 233.795,59.218 
	238.133,65.888 239.337,65.888 239.337,57.927 238.384,57.927 "/>
<polygon fill="#1D1D1B" points="82.695,57.927 81.744,57.927 81.744,65.888 86.269,65.888 86.269,65.053 82.695,65.053 "/>
<polygon fill="#1D1D1B" points="25.263,65.888 26.216,65.888 26.216,62.208 29.538,62.208 29.538,61.368 26.216,61.368 
	26.216,58.77 29.875,58.77 29.875,57.927 25.263,57.927 "/>
<rect x="33.571" y="57.927" fill="#1D1D1B" width="0.952" height="7.961"/>
<rect x="63.897" y="61.81" width="4.818" height="0.779"/>
<path fill="#1D1D1B" d="M91.17,57.927l-2.83,7.961h0.881l0.806-2.313h3.282l0.806,2.313h0.964l-2.829-7.961H91.17z M90.313,62.739
	l1.356-3.883l1.35,3.883H90.313z"/>
<path fill="#1D1D1B" d="M126.743,60.161c-0.192-0.501-0.455-0.921-0.79-1.257c-0.333-0.338-0.73-0.597-1.187-0.783
	c-0.46-0.184-0.95-0.277-1.477-0.277c-0.533,0-1.03,0.097-1.49,0.291c-0.46,0.19-0.858,0.461-1.187,0.811
	c-0.334,0.349-0.596,0.779-0.785,1.291c-0.19,0.512-0.286,1.075-0.286,1.692c0,0.657,0.104,1.248,0.313,1.771
	c0.209,0.527,0.488,0.952,0.841,1.278c0.351,0.324,0.744,0.572,1.181,0.741c0.439,0.17,0.896,0.256,1.374,0.256
	c0.724,0,1.373-0.172,1.947-0.519c0.572-0.344,1.021-0.836,1.344-1.468c0.321-0.632,0.485-1.357,0.485-2.17
	C127.027,61.214,126.93,60.663,126.743,60.161z M125.887,63.11c-0.107,0.361-0.25,0.666-0.427,0.913s-0.383,0.455-0.619,0.624
	c-0.234,0.17-0.481,0.294-0.737,0.373s-0.517,0.119-0.779,0.119c-0.393,0-0.761-0.079-1.102-0.236
	c-0.343-0.157-0.639-0.376-0.888-0.662c-0.252-0.283-0.45-0.635-0.595-1.057c-0.146-0.418-0.219-0.876-0.219-1.375
	c0-0.519,0.081-0.983,0.239-1.398c0.161-0.412,0.371-0.741,0.634-0.983c0.262-0.248,0.55-0.431,0.866-0.559
	c0.313-0.128,0.639-0.192,0.979-0.192c0.27,0,0.534,0.04,0.793,0.117c0.259,0.077,0.512,0.199,0.756,0.37s0.459,0.378,0.645,0.624
	c0.184,0.248,0.333,0.554,0.445,0.918c0.112,0.368,0.167,0.772,0.167,1.21C126.045,62.348,125.992,62.748,125.887,63.11z"/>
<path fill="#1D1D1B" d="M42.944,62.117c0.237-0.161,0.423-0.348,0.559-0.565c0.135-0.214,0.232-0.445,0.296-0.682
	c0.063-0.241,0.095-0.492,0.095-0.756c0-0.289-0.03-0.548-0.092-0.779c-0.062-0.232-0.141-0.421-0.234-0.572
	c-0.097-0.15-0.216-0.281-0.359-0.39c-0.142-0.108-0.281-0.192-0.412-0.246c-0.132-0.057-0.281-0.099-0.451-0.13
	c-0.171-0.032-0.31-0.05-0.418-0.057c-0.109-0.008-0.229-0.013-0.363-0.013H38.64v7.961h0.958v-3.314h1.54l2.157,3.314h1.065
	l-2.247-3.423C42.43,62.39,42.708,62.274,42.944,62.117z M41.472,61.712c-0.146,0.014-0.313,0.02-0.503,0.02h-1.371v-2.97H41.2
	c0.09,0,0.174,0.003,0.254,0.007c0.08,0.007,0.184,0.021,0.304,0.043c0.124,0.023,0.237,0.054,0.337,0.09
	c0.102,0.039,0.206,0.09,0.314,0.164c0.107,0.073,0.197,0.16,0.273,0.257c0.075,0.1,0.137,0.224,0.186,0.378
	c0.048,0.154,0.073,0.326,0.073,0.517c0,0.269-0.047,0.501-0.139,0.697c-0.09,0.197-0.201,0.344-0.33,0.448
	c-0.128,0.104-0.292,0.184-0.486,0.241C41.792,61.664,41.618,61.699,41.472,61.712z"/>
<polygon fill="#1D1D1B" points="224.512,65.888 229.177,65.888 229.177,65.05 225.461,65.05 225.461,62.208 228.869,62.208 
	228.869,61.368 225.461,61.368 225.461,58.77 229.177,58.77 229.177,57.927 224.512,57.927 "/>
<polygon fill="#1D1D1B" points="168.836,65.05 165.124,65.05 165.124,62.208 168.528,62.208 168.528,61.368 165.124,61.368 
	165.124,58.77 168.836,58.77 168.836,57.927 164.167,57.927 164.167,65.888 168.836,65.888 "/>
<path fill="#1D1D1B" d="M189.858,57.927h-2.927v7.961h0.96v-3.314h1.542l2.157,3.314h1.063l-2.248-3.423
	c0.318-0.075,0.596-0.19,0.833-0.348c0.237-0.161,0.421-0.348,0.555-0.565c0.138-0.214,0.234-0.445,0.298-0.682
	c0.063-0.241,0.098-0.492,0.098-0.756c0-0.289-0.034-0.548-0.094-0.779c-0.061-0.232-0.141-0.421-0.234-0.572
	c-0.097-0.15-0.214-0.281-0.357-0.39c-0.145-0.108-0.285-0.192-0.412-0.246c-0.13-0.057-0.28-0.099-0.454-0.13
	c-0.168-0.032-0.308-0.05-0.415-0.057C190.115,57.932,189.992,57.927,189.858,57.927z M190.704,59.067
	c0.11,0.073,0.201,0.16,0.274,0.257c0.077,0.1,0.137,0.224,0.188,0.378c0.043,0.154,0.07,0.326,0.07,0.517
	c0,0.269-0.047,0.501-0.138,0.697c-0.094,0.197-0.2,0.344-0.331,0.448c-0.13,0.104-0.291,0.184-0.488,0.241
	c-0.193,0.059-0.364,0.094-0.512,0.107c-0.144,0.014-0.314,0.02-0.505,0.02h-1.371v-2.97h1.602c0.091,0,0.178,0.003,0.255,0.007
	c0.08,0.007,0.184,0.021,0.304,0.043c0.124,0.023,0.237,0.054,0.338,0.09C190.49,58.942,190.597,58.994,190.704,59.067z"/>
<path fill="#1D1D1B" d="M183.187,60.791c-0.051-0.281-0.134-0.565-0.251-0.854c-0.11-0.289-0.274-0.552-0.479-0.786
	c-0.204-0.238-0.451-0.448-0.735-0.634c-0.288-0.186-0.639-0.333-1.061-0.435c-0.425-0.102-0.89-0.155-1.404-0.155h-2.468v7.961
	h1.726c0.308,0,0.545-0.001,0.712-0.005s0.381-0.019,0.639-0.043c0.258-0.027,0.492-0.067,0.699-0.119
	c0.404-0.102,0.766-0.256,1.08-0.467c0.321-0.21,0.578-0.448,0.776-0.712c0.2-0.264,0.364-0.562,0.494-0.893
	c0.127-0.334,0.221-0.659,0.271-0.981c0.054-0.32,0.08-0.656,0.08-1.003C183.267,61.361,183.24,61.072,183.187,60.791z
	 M181.938,63.587c-0.1,0.197-0.221,0.375-0.354,0.533c-0.134,0.154-0.268,0.285-0.401,0.385c-0.137,0.101-0.29,0.188-0.465,0.257
	c-0.174,0.07-0.327,0.125-0.465,0.164c-0.134,0.035-0.301,0.063-0.484,0.083c-0.19,0.019-0.338,0.03-0.448,0.034
	s-0.251,0.006-0.418,0.006h-1.16v-6.28h1.545c0.334,0,0.582,0.013,0.745,0.043c0.281,0.048,0.549,0.142,0.807,0.281
	c0.254,0.139,0.495,0.325,0.722,0.563c0.225,0.236,0.405,0.543,0.542,0.923c0.138,0.379,0.204,0.804,0.204,1.276
	C182.307,62.534,182.183,63.114,181.938,63.587z"/>
<path fill="#C51A1B" d="M260.485,9.525l5.244,3.898c0,0,1.246,0.927,0.807,2.414l-1.854,6.284c0,0-0.44,1.49,0.822,0.59l5.321-3.803
	c0,0,1.26-0.903,2.538-0.023l5.38,3.71c0,0,1.276,0.88,0.81-0.601l-1.96-6.254c0,0-0.466-1.481,0.761-2.428l5.186-3.988
	c0,0,1.227-0.946-0.324-0.96l-6.527-0.06c0,0-1.547-0.016-2.068-1.479l-2.179-6.177c0,0-0.516-1.463-1.008,0.008l-2.075,6.216
	c0,0-0.492,1.473-2.042,1.511l-6.531,0.175C260.785,8.559,259.239,8.599,260.485,9.525z"/>
</svg>
